<svg width="69" height="68" viewBox="0 0 69 68" fill="none" xmlns="http://www.w3.org/2000/svg">
<g clip-path="url(#clip0_270_434)">
<path d="M20.4818 11.3333C14.2485 11.3333 9.1485 16.4333 9.1485 22.6666C9.1485 28.8999 14.2485 33.9999 20.4818 33.9999C26.7152 33.9999 31.8152 28.8999 31.8152 22.6666C31.8152 16.4333 26.7152 11.3333 20.4818 11.3333ZM20.4818 28.3333C17.3652 28.3333 14.8152 25.7833 14.8152 22.6666C14.8152 19.5499 17.3652 16.9999 20.4818 16.9999C23.5985 16.9999 26.1485 19.5499 26.1485 22.6666C26.1485 25.7833 23.5985 28.3333 20.4818 28.3333ZM20.4818 39.6666C9.43183 39.6666 0.648499 44.7666 0.648499 50.9999V56.6666H31.8152V50.9999H6.31517C6.31517 49.2999 11.4152 45.3333 20.4818 45.3333C25.5818 45.3333 29.5485 46.7499 31.8152 48.1666V41.9333C28.6985 40.5166 24.7318 39.6666 20.4818 39.6666ZM62.9818 11.3333H43.1485C40.0318 11.3333 37.4818 13.8833 37.4818 16.9999V50.9999C37.4818 54.1166 40.0318 56.6666 43.1485 56.6666H62.9818C66.0985 56.6666 68.6485 54.1166 68.6485 50.9999V16.9999C68.6485 13.8833 66.0985 11.3333 62.9818 11.3333ZM45.9818 50.9999H43.1485V16.9999H45.9818V50.9999ZM62.9818 50.9999H51.6485V16.9999H62.9818V50.9999Z" fill="url(#paint0_linear_270_434)"/>
</g>
<defs>
<linearGradient id="paint0_linear_270_434" x1="34.6485" y1="11.3333" x2="34.6485" y2="56.6666" gradientUnits="userSpaceOnUse">
<stop stop-color="#FF3161"/>
<stop offset="1" stop-color="#FF714B"/>
</linearGradient>
<clipPath id="clip0_270_434">
<rect width="68" height="68" fill="white" transform="translate(0.648499)"/>
</clipPath>
</defs>
</svg>
