<svg width="35" height="34" viewBox="0 0 35 34" fill="none" xmlns="http://www.w3.org/2000/svg">
<path d="M15.5235 6.375H19.7735C19.7735 5.81141 19.5496 5.27091 19.1511 4.8724C18.7526 4.47388 18.2121 4.25 17.6485 4.25C17.0849 4.25 16.5444 4.47388 16.1459 4.8724C15.7474 5.27091 15.5235 5.81141 15.5235 6.375ZM13.3985 6.375C13.3985 5.24783 13.8463 4.16683 14.6433 3.3698C15.4403 2.57277 16.5213 2.125 17.6485 2.125C18.7757 2.125 19.8567 2.57277 20.6537 3.3698C21.4507 4.16683 21.8985 5.24783 21.8985 6.375H30.3985C30.6803 6.375 30.9505 6.48694 31.1498 6.6862C31.3491 6.88546 31.461 7.15571 31.461 7.4375C31.461 7.71929 31.3491 7.98954 31.1498 8.1888C30.9505 8.38806 30.6803 8.5 30.3985 8.5H29.2L26.6394 27.2808C26.4657 28.5535 25.8368 29.7202 24.869 30.5649C23.9013 31.4095 22.6603 31.875 21.3757 31.875H13.9212C12.6367 31.875 11.3957 31.4095 10.428 30.5649C9.46022 29.7202 8.83129 28.5535 8.65762 27.2808L6.097 8.5H4.8985C4.61671 8.5 4.34645 8.38806 4.1472 8.1888C3.94794 7.98954 3.836 7.71929 3.836 7.4375C3.836 7.15571 3.94794 6.88546 4.1472 6.6862C4.34645 6.48694 4.61671 6.375 4.8985 6.375H13.3985ZM15.5235 13.8125C15.5235 13.5307 15.4116 13.2605 15.2123 13.0612C15.013 12.8619 14.7428 12.75 14.461 12.75C14.1792 12.75 13.909 12.8619 13.7097 13.0612C13.5104 13.2605 13.3985 13.5307 13.3985 13.8125V24.4375C13.3985 24.7193 13.5104 24.9895 13.7097 25.1888C13.909 25.3881 14.1792 25.5 14.461 25.5C14.7428 25.5 15.013 25.3881 15.2123 25.1888C15.4116 24.9895 15.5235 24.7193 15.5235 24.4375V13.8125ZM20.836 12.75C21.1178 12.75 21.388 12.8619 21.5873 13.0612C21.7866 13.2605 21.8985 13.5307 21.8985 13.8125V24.4375C21.8985 24.7193 21.7866 24.9895 21.5873 25.1888C21.388 25.3881 21.1178 25.5 20.836 25.5C20.5542 25.5 20.284 25.3881 20.0847 25.1888C19.8854 24.9895 19.7735 24.7193 19.7735 24.4375V13.8125C19.7735 13.5307 19.8854 13.2605 20.0847 13.0612C20.284 12.8619 20.5542 12.75 20.836 12.75ZM10.7635 26.9939C10.8678 27.7574 11.2451 28.4572 11.8257 28.9639C12.4062 29.4706 13.1507 29.7499 13.9212 29.75H21.3757C22.1467 29.7504 22.8917 29.4714 23.4727 28.9646C24.0536 28.4579 24.4313 27.7577 24.5356 26.9939L27.0559 8.5H8.24112L10.7635 26.9939Z" fill="url(#paint0_linear_270_476)"/>
<defs>
<linearGradient id="paint0_linear_270_476" x1="17.6485" y1="2.125" x2="17.6485" y2="31.875" gradientUnits="userSpaceOnUse">
<stop stop-color="#FF0072"/>
<stop offset="1" stop-color="#FF7F47"/>
</linearGradient>
</defs>
</svg>
