<svg width="65" height="65" viewBox="0 0 65 65" fill="none" xmlns="http://www.w3.org/2000/svg">
<path d="M30 0C29.35 0 28.7 0.325 28.05 0.65L2.375 14.95C1.4 15.6 0.75 16.575 0.75 17.875V47.125C0.75 48.425 1.4 49.4 2.375 50.05L28.05 64.35C28.7 64.675 29.35 65 30 65C30.65 65 31.3 64.675 31.95 64.35L34.875 62.725C33.9 60.775 33.575 58.5 33.25 56.225V34.45L52.75 23.4V35.75C55.025 35.75 57.3 36.075 59.25 36.725V17.875C59.25 16.575 58.6 15.6 57.625 14.95L31.95 0.65C31.3 0.325 30.65 0 30 0ZM30 7.15L49.5 17.875L43 21.45L23.825 10.4L30 7.15ZM17.325 13.975L36.5 25.35L30 28.925L10.5 17.875L17.325 13.975ZM7.25 23.4L26.75 34.45V56.225L7.25 45.175V23.4ZM60.225 44.85L48.525 56.55L43.325 51.35L39.75 55.25L48.85 65L64.45 49.4L60.225 44.85Z" fill="url(#paint0_linear_332_1383)"/>
<defs>
<linearGradient id="paint0_linear_332_1383" x1="32.6" y1="0" x2="32.6" y2="65" gradientUnits="userSpaceOnUse">
<stop stop-color="#FF0072"/>
<stop offset="1" stop-color="#FF7F47"/>
</linearGradient>
</defs>
</svg>
