<svg width="37" height="36" viewBox="0 0 37 36" fill="none" xmlns="http://www.w3.org/2000/svg">
<g clip-path="url(#clip0_270_468)">
<path d="M34.5185 8.31997L28.6485 2.41997C28.2606 2.03403 27.7357 1.81738 27.1885 1.81738C26.6413 1.81738 26.1164 2.03403 25.7285 2.41997L4.91849 23.2L3.01849 31.4C2.95295 31.6997 2.9552 32.0103 3.02507 32.3091C3.09494 32.6079 3.23068 32.8873 3.42236 33.1269C3.61404 33.3665 3.85682 33.5602 4.13297 33.694C4.40912 33.8277 4.71166 33.8981 5.01849 33.9C5.16146 33.9144 5.30552 33.9144 5.44849 33.9L13.7385 32L34.5185 11.24C34.9044 10.8521 35.1211 10.3272 35.1211 9.77997C35.1211 9.23279 34.9044 8.70786 34.5185 8.31997ZM12.7385 30.2L4.96849 31.83L6.73849 24.21L22.3085 8.69997L28.3085 14.7L12.7385 30.2ZM29.6485 13.25L23.6485 7.24997L27.1285 3.78997L33.0285 9.78997L29.6485 13.25Z" fill="url(#paint0_linear_270_468)"/>
</g>
<defs>
<linearGradient id="paint0_linear_270_468" x1="19.046" y1="1.81738" x2="19.046" y2="33.9108" gradientUnits="userSpaceOnUse">
<stop stop-color="#FF0072"/>
<stop offset="1" stop-color="#FF7F47"/>
</linearGradient>
<clipPath id="clip0_270_468">
<rect width="36" height="36" fill="white" transform="translate(0.648499)"/>
</clipPath>
</defs>
</svg>
