<svg width="19" height="18" viewBox="0 0 19 18" fill="none" xmlns="http://www.w3.org/2000/svg">
<path d="M18.376 9.47937C18.376 8.89629 18.3252 8.31007 18.2169 7.73645H9.52454V11.0395H14.5022C14.2957 12.1048 13.632 13.0472 12.6601 13.646V15.7892H15.6298C17.3737 14.2952 18.376 12.089 18.376 9.47937Z" fill="#4285F4"/>
<path d="M9.52454 17.8599C12.01 17.8599 14.106 17.1003 15.6332 15.7892L12.6635 13.646C11.8373 14.1692 10.7707 14.4654 9.52792 14.4654C7.12373 14.4654 5.08525 12.9558 4.35383 10.926H1.28934V13.1354C2.85375 16.0319 6.04015 17.8599 9.52454 17.8599Z" fill="#34A853"/>
<path d="M4.35046 10.926C3.96444 9.8607 3.96444 8.70716 4.35046 7.64187V5.4325H1.28935C-0.0177152 7.85619 -0.0177152 10.7117 1.28935 13.1354L4.35046 10.926Z" fill="#FBBC04"/>
<path d="M9.52454 4.09936C10.8384 4.08045 12.1082 4.5406 13.0597 5.38527L15.6908 2.93636C14.0248 1.48025 11.8136 0.67971 9.52454 0.704924C6.04015 0.704924 2.85375 2.53294 1.28934 5.43255L4.35045 7.64193C5.07848 5.60905 7.12035 4.09936 9.52454 4.09936Z" fill="#FE2C25"/>
</svg>
