<svg width="37" height="37" viewBox="0 0 37 37" fill="none" xmlns="http://www.w3.org/2000/svg">
<g clip-path="url(#clip0_237_225)">
<path d="M35.827 2.23892L34.3298 0.741691C34.0177 0.429442 33.5447 0.343898 33.1433 0.525997L25.1016 4.076C24.7852 4.21998 24.5599 4.50958 24.4978 4.8509C24.4363 5.19315 24.5453 5.54323 24.7909 5.78892L30.7798 11.7778C31.0255 12.0235 31.3756 12.1324 31.7178 12.0709C32.0591 12.0089 32.3487 11.7836 32.4927 11.4671L36.0427 3.42538C36.2248 3.02399 36.1392 2.55103 35.827 2.23892Z" fill="#FF5854"/>
<path d="M6.8393 23.7407L0.928861 29.6512C-0.30962 30.8896 -0.30962 32.9044 0.928861 34.1428L2.42602 35.6399C3.6645 36.8784 5.67923 36.8784 6.91764 35.6399L12.8281 29.7295L6.8393 23.7407ZM6.17944 31.9014C5.76562 32.3152 5.09588 32.3152 4.68214 31.9014C4.26846 31.4876 4.26846 30.8179 4.68214 30.4043L7.59818 27.4882C8.012 27.0743 8.68167 27.0743 9.09534 27.4882C9.50916 27.902 9.50916 28.5716 9.09534 28.9854L6.17944 31.9014Z" fill="#FF5854"/>
<path d="M17.3199 25.2378L11.331 19.249C10.5056 18.4235 9.16198 18.4235 8.33661 19.249C7.51117 20.0744 7.51117 21.418 8.33661 22.2434L14.3255 28.2322C15.1508 29.0577 16.4944 29.0577 17.3199 28.2322C18.1453 27.407 18.1453 26.0633 17.3199 25.2378Z" fill="#FF5854"/>
<path d="M27.7857 11.7777L24.7912 8.7832L16.5712 17.0032C15.7443 16.1763 14.4038 16.1763 13.5768 17.0032L12.8281 17.7518L18.817 23.7407L19.5656 22.992C20.3925 22.165 20.3925 20.8246 19.5656 19.9976L27.7857 11.7777Z" fill="#FF5854"/>
<path d="M34.2794 25.7245C32.5607 24.0058 30.494 23.6362 28.1227 24.06L23.3095 19.2473L22.1601 20.3967C22.5385 21.8189 22.1706 23.3803 21.062 24.4889L20.3149 25.236L23.6274 28.5481C23.2934 30.4171 23.3247 32.0023 24.4855 33.7216C25.825 35.7064 28.1693 36.8346 30.6254 36.4965C31.0314 36.4407 31.3706 36.159 31.5011 35.7706C31.6316 35.3821 31.5309 34.9532 31.2412 34.6633L29.7852 33.2098V30.2158H32.7824L34.2303 31.6637C34.5207 31.9541 34.9508 32.0541 35.3395 31.9225C35.7284 31.7909 36.0091 31.4502 36.0638 31.0433C36.3223 29.1175 35.6923 27.1367 34.2794 25.7245Z" fill="#FF5854"/>
<path d="M12.4955 8.42841C12.9156 6.08181 12.5754 4.01747 10.831 2.27172C9.644 1.08483 8.05593 0.431396 6.35931 0.431396C6.07367 0.431396 5.79106 0.45003 5.51213 0.486944C5.10481 0.541008 4.76383 0.822061 4.63213 1.21131C4.50042 1.60043 4.601 2.03069 4.89151 2.3212L6.35366 3.76881V6.7836H3.34459L1.89331 5.31199C1.60343 5.02211 1.17409 4.92182 0.785474 5.0526C0.396997 5.18339 0.116015 5.52288 0.0601858 5.92908C-0.262369 8.27779 0.755336 10.6639 2.83175 12.0657C4.55759 13.2284 6.1523 13.2572 8.0073 12.9228L11.3331 16.2541L12.0805 15.5067C13.1891 14.3981 14.7504 14.0303 16.1726 14.4087L17.3215 13.2597L12.4955 8.42841Z" fill="#FF5854"/>
</g>
<defs>
<clipPath id="clip0_237_225">
<rect width="36.1374" height="36.1374" fill="white" transform="translate(0 0.431396)"/>
</clipPath>
</defs>
</svg>
