<svg width="37" height="37" viewBox="0 0 37 37" fill="none" xmlns="http://www.w3.org/2000/svg">
<g clip-path="url(#clip0_237_295)">
<path d="M35.8355 16.4407C35.8347 16.4399 35.8338 16.439 35.833 16.4382L21.0918 1.69756C20.4635 1.06894 19.6281 0.722656 18.7395 0.722656C17.8509 0.722656 17.0155 1.06867 16.3869 1.69728L1.65337 16.4305C1.6484 16.4355 1.64344 16.4407 1.63848 16.4457C0.348169 17.7434 0.350375 19.849 1.64482 21.1434C2.23621 21.7351 3.01729 22.0778 3.8524 22.1136C3.88631 22.117 3.9205 22.1186 3.95497 22.1186H4.5425V32.9668C4.5425 35.1135 6.2891 36.8601 8.4363 36.8601H14.2035C14.788 36.8601 15.2622 36.3862 15.2622 35.8014V27.2964C15.2622 26.3168 16.059 25.52 17.0386 25.52H20.4403C21.4199 25.52 22.2167 26.3168 22.2167 27.2964V35.8014C22.2167 36.3862 22.6906 36.8601 23.2754 36.8601H29.0426C31.1898 36.8601 32.9364 35.1135 32.9364 32.9668V22.1186H33.4812C34.3696 22.1186 35.2049 21.7726 35.8338 21.144C37.1297 19.8473 37.1302 17.7382 35.8355 16.4407Z" fill="#FF5854"/>
</g>
<defs>
<clipPath id="clip0_237_295">
<rect width="36.1374" height="36.1374" fill="white" transform="translate(0.673096 0.296143)"/>
</clipPath>
</defs>
</svg>
