<svg width="105" height="106" viewBox="0 0 105 106" fill="none" xmlns="http://www.w3.org/2000/svg">
<path d="M27.0555 90.1001C24.5479 89.2524 24.5692 87.1819 24.7341 84.9967C23.1205 85.0434 21.5884 84.8801 20.6983 83.4589C20.2697 82.7765 19.9788 81.8783 19.9846 81.0793C19.9982 78.9465 21.3906 77.955 24.6371 77.5798V72.5834C23.1225 72.6631 21.6136 72.5192 20.7274 71.1233C20.2949 70.4409 19.9865 69.5505 19.9807 68.7534C19.9671 66.5973 21.3945 65.5669 24.6488 65.1956V60.2711C24.2221 60.2419 23.7954 60.2186 23.3707 60.1797C21.4139 60.0028 19.9846 58.5272 19.938 56.6375C19.8896 54.7517 21.2374 53.2002 23.1884 52.9203C23.6461 52.8542 24.1116 52.8561 24.6371 52.8211V47.8927C22.0364 47.9161 20.0719 47.0315 19.9594 44.0355C19.9148 42.8593 20.452 41.7803 21.4818 41.234C22.4243 40.7344 23.5336 40.5555 24.6623 40.2056V35.4658C23.1787 35.5202 21.7145 35.4074 20.8224 34.099C20.3666 33.4302 20.0486 32.5651 19.9768 31.7602C19.8682 30.5646 20.4035 29.4447 21.4604 28.8751C22.3952 28.3716 23.5026 28.1908 24.6507 27.8292V23.1088C24.2628 23.0893 23.8633 23.0718 23.4619 23.0505C21.5012 22.9474 19.9962 21.4368 19.94 19.5141C19.8818 17.5777 21.3518 15.9368 23.3281 15.758C23.7567 15.7191 24.1911 15.7521 24.7069 15.7521C24.7069 15.0134 24.6953 14.3737 24.7089 13.7322C24.7496 11.8502 25.9559 10.6313 27.8274 10.6099C29.6329 10.5904 31.4404 10.606 33.2479 10.606C49.7403 10.606 66.2327 10.606 82.7251 10.606C85.2366 10.606 86.3692 11.7336 86.3692 14.2415C86.3692 38.1953 86.3576 62.1511 86.3925 86.1049C86.3944 87.9829 85.8824 89.3749 84.0633 90.0982H27.0555V90.1001ZM27.0478 50.3579C27.0478 62.3883 27.0478 74.4206 27.0478 86.4509C27.0478 87.6835 27.1195 87.7535 28.3782 87.7535C46.4744 87.7535 64.5707 87.7535 82.6669 87.7535C83.914 87.7535 84.0129 87.6524 84.0129 86.3693C84.0129 62.3591 84.0129 38.347 84.0129 14.3368C84.0129 13.0576 83.914 12.9565 82.6631 12.9565C64.5668 12.9565 46.4705 12.9565 28.3743 12.9565C27.1195 12.9565 27.0497 13.0264 27.0497 14.2629C27.0497 26.2933 27.0497 38.3256 27.0497 50.356L27.0478 50.3579ZM24.6352 20.665V18.1104C23.7993 18.0812 22.9382 17.9179 22.5213 18.7636C22.3409 19.1291 22.3622 19.7571 22.562 20.1148C23.0216 20.9352 23.8672 20.7175 24.6352 20.665ZM24.6526 33.0706V30.4946C23.8459 30.4926 22.9828 30.2652 22.5426 31.107C22.3525 31.4686 22.3487 32.0985 22.5387 32.4582C22.9751 33.2864 23.8284 33.1153 24.6526 33.0706ZM24.6604 67.6277C23.8148 67.5908 22.9538 67.4255 22.529 68.2654C22.3448 68.629 22.3584 69.2589 22.5562 69.6166C23.01 70.437 23.8575 70.2368 24.6604 70.1843V67.6277ZM24.6565 80.01C23.8265 80.0178 23.01 79.8097 22.498 80.6302C22.1955 81.1162 22.2168 81.6275 22.5698 82.0747C23.1147 82.7648 23.8711 82.6462 24.6565 82.5763V80.01ZM24.6682 42.8729C23.8129 42.8982 22.9673 42.6669 22.465 43.5476C22.1819 44.0433 22.2304 44.5624 22.6027 44.9843C23.171 45.6259 23.9137 45.5092 24.6662 45.4392V42.8729H24.6682ZM24.6662 55.2416C23.842 55.2377 23.0488 55.0588 22.5213 55.8423C22.2013 56.3167 22.2129 56.8183 22.5484 57.281C23.1031 58.0451 23.8827 57.8331 24.6662 57.7923V55.2416Z" fill="#404040"/>
<path d="M37.5274 43.1339C38.6298 34.7339 43.3164 29.5009 51.6566 27.2393C51.6024 26.6608 51.5463 26.0466 51.4902 25.4324C51.3258 23.6648 52.3335 22.5698 54.1691 22.5359C54.8886 22.5228 55.61 22.519 56.3315 22.5378C58.0278 22.5829 59.0316 23.6404 58.9407 25.299C58.9039 25.9451 58.815 26.5875 58.7492 27.2375C67.0817 29.4971 71.8107 34.7339 72.8765 43.1377C73.1821 43.1377 73.5128 43.1189 73.8397 43.1414C74.9054 43.2128 75.5998 43.72 75.6984 44.6967C75.7932 45.6565 75.7739 46.6427 75.6656 47.6006C75.5689 48.4478 74.9693 48.891 74.0989 48.9925C73.8958 49.0169 73.6888 49.0244 73.4838 49.0244C61.312 49.0244 49.1402 49.0282 36.9684 49.015C36.4964 49.015 35.9626 48.9549 35.5642 48.7389C34.2315 48.0195 34.2199 44.214 35.5371 43.4532C35.8717 43.2598 36.3069 43.2109 36.7053 43.1433C36.9761 43.0982 37.2604 43.1339 37.5351 43.1339H37.5274ZM73.391 45.4086C72.9964 45.4086 72.6908 45.4086 72.3852 45.4086C64.1746 45.4086 55.962 45.4086 47.7514 45.4067C46.7495 45.4067 46.2544 45.0254 46.2467 44.2928C46.2408 43.5584 46.7573 43.1527 47.7263 43.1358C47.9062 43.132 48.0861 43.1358 48.2659 43.1358C55.345 43.1358 62.4222 43.1358 69.5013 43.1358H70.3833C70.0526 35.9323 63.6852 29.1909 55.082 29.2679C46.1654 29.3487 40.2236 36.4752 40.0225 43.1358C40.4306 43.1358 40.8367 43.1358 41.2449 43.1358C42.5001 43.1358 43.0553 43.4795 43.0669 44.2628C43.0785 45.0611 42.5408 45.4086 41.2835 45.4086C39.8755 45.4086 38.4674 45.4086 37.0322 45.4086V46.6859H73.3871V45.4086H73.391ZM54.0066 26.9951C54.7338 26.9951 55.4398 27.0064 56.1439 26.982C56.2444 26.9782 56.4127 26.8129 56.4263 26.7078C56.5075 26.1048 56.55 25.4981 56.61 24.8613H53.7958C53.8673 25.5789 53.9312 26.2401 54.0066 26.9951Z" fill="#404040"/>
<path d="M55.1091 60.9479C48.9376 60.9479 42.7642 60.9479 36.5927 60.9479C36.3598 60.9479 36.1269 60.9544 35.896 60.9435C35.0246 60.8999 34.553 60.4352 34.5569 59.6281C34.5608 58.8362 35.0479 58.3585 35.9096 58.3061C36.0901 58.2952 36.2706 58.3018 36.451 58.3018C48.924 58.3018 61.399 58.3018 73.8719 58.3061C74.229 58.3061 74.5997 58.3214 74.9432 58.4217C75.5196 58.5897 75.801 59.0936 75.7544 59.7306C75.7079 60.3567 75.3876 60.8148 74.7841 60.8999C74.4775 60.9435 74.1669 60.9457 73.8564 60.9457C67.6073 60.9479 61.3563 60.9457 55.1072 60.9457L55.1091 60.9479Z" fill="#404040"/>
<path d="M49.0976 79.4816C44.8115 79.4816 40.5273 79.4816 36.2412 79.4794C35.9308 79.4794 35.5383 79.5643 35.3293 79.3902C34.9915 79.1095 34.5815 78.6613 34.558 78.2588C34.5346 77.8585 34.8783 77.3276 35.1965 77.0382C35.4348 76.8228 35.8878 76.8576 36.2451 76.8576C44.8428 76.8489 53.4404 76.8511 62.0361 76.8511C62.1396 76.8511 62.2431 76.8489 62.3485 76.8511C63.2506 76.8837 63.7974 77.3863 63.7974 78.1783C63.7974 78.9703 63.2585 79.4729 62.3446 79.4751C57.9296 79.4838 53.5146 79.4794 49.0976 79.4794V79.4816Z" fill="#404040"/>
<path d="M37.6826 67.6972C37.6826 69.5196 37.6884 71.3439 37.6788 73.1663C37.6749 73.9874 37.3375 74.2807 36.5801 74.1816C36.1372 74.1229 35.886 73.9065 35.886 73.4009C35.8917 70.4702 35.8726 67.5374 35.9167 64.6067C35.9205 64.2912 36.2139 63.82 36.4823 63.7027C37 63.4782 37.5657 63.6157 37.8878 64.18C38.4017 65.076 38.8753 65.9962 39.3642 66.9084C39.5023 67.1653 39.6384 67.4222 39.8397 67.7963C40.0065 67.5152 40.1369 67.3089 40.252 67.0945C40.7678 66.1378 41.2644 65.169 41.7974 64.2225C42.133 63.6278 42.6909 63.5186 43.2719 63.6824C43.828 63.8402 43.8529 64.358 43.8529 64.8596C43.8529 67.6305 43.8414 70.3994 43.8606 73.1703C43.8663 73.8418 43.6343 74.1816 42.9862 74.1937C42.3075 74.2079 42.0313 73.8762 42.0409 73.1582C42.0659 71.3581 42.0486 69.558 41.9105 67.6952C41.4925 68.4638 41.1052 69.2546 40.645 69.9949C40.4552 70.3023 40.1139 70.7048 39.8436 70.7028C39.5751 70.7007 39.2396 70.2902 39.0574 69.9787C38.6202 69.2324 38.2559 68.4375 37.8609 67.6628C37.7996 67.675 37.7382 67.6871 37.6769 67.6972H37.6826Z" fill="#404040"/>
<path d="M62.0054 69.5981C62.0054 67.9388 62.0187 66.2796 61.9978 64.6204C61.9901 63.953 62.217 63.6001 62.8728 63.6001C63.4828 63.6001 63.8031 63.8273 63.7973 64.5534C63.7726 67.3607 63.7878 70.168 63.7878 72.9753C63.7878 73.452 63.8965 74.0119 63.2693 74.1518C62.6478 74.2897 62.1274 74.1376 61.7995 73.4703C61.0599 71.9652 60.2954 70.4743 59.5405 68.9774C59.388 68.6751 59.2317 68.3729 58.9267 68.0991C58.9267 69.8029 58.9305 71.5088 58.9248 73.2127C58.9209 73.9774 58.6598 74.2228 57.9621 74.1985C57.3349 74.1762 57.15 73.807 57.1519 73.1944C57.1633 70.3607 57.1423 67.525 57.1767 64.6914C57.1805 64.3486 57.4149 63.7421 57.5884 63.7218C58.044 63.6711 58.5702 63.7847 58.98 64.0119C59.2488 64.1599 59.3804 64.6123 59.5443 64.9449C60.3088 66.4966 61.0637 68.0524 61.8224 69.6082C61.8834 69.6042 61.9463 69.6001 62.0073 69.5981H62.0054Z" fill="#404040"/>
<path d="M66.4672 67.8506C66.4672 66.7838 66.4941 65.715 66.4576 64.6502C66.4326 63.9484 66.6653 63.5994 67.3672 63.6034C68.0941 63.6075 68.2556 64.0165 68.246 64.6863C68.221 66.6595 68.221 68.6347 68.2441 70.6078C68.2614 72.0376 68.8709 72.6712 70.0036 72.5108C70.8497 72.3905 71.2535 71.9253 71.2651 70.9106C71.2901 68.8312 71.2727 66.7497 71.2785 64.6682C71.2804 63.7939 71.6016 63.5112 72.4054 63.6235C72.8592 63.6857 73.0919 63.9303 73.09 64.4156C73.0803 66.6835 73.1438 68.9535 73.0457 71.2154C72.9592 73.2387 71.692 74.2614 69.6074 74.1973C67.621 74.1371 66.5518 73.0783 66.4826 71.053C66.4461 69.9882 66.4768 68.9194 66.4768 67.8526C66.473 67.8526 66.4691 67.8526 66.4653 67.8526L66.4672 67.8506Z" fill="#404040"/>
<path d="M49.7816 65.2557V68.1659C50.4465 68.1659 51.0828 68.1821 51.7192 68.1598C52.2596 68.1416 52.5635 68.3885 52.5635 68.9046C52.5635 69.4287 52.2372 69.6534 51.7069 69.6372C51.0889 69.6169 50.471 69.6331 49.802 69.6331V72.5494C51.0339 72.5494 52.2719 72.511 53.5037 72.5757C53.8219 72.5919 54.2787 72.8591 54.4031 73.1323C54.6744 73.7232 54.3114 74.1867 53.6485 74.1927C52.021 74.2089 50.3935 74.1927 48.766 74.1968C48.1296 74.1968 47.8441 73.9297 47.8482 73.2658C47.8686 70.3597 47.8686 67.4535 47.8482 64.5453C47.8441 63.8815 48.1235 63.6063 48.7598 63.6083C50.3874 63.6083 52.0149 63.6164 53.6424 63.6002C54.242 63.5941 54.4827 63.9058 54.4704 64.4461C54.4562 64.9946 54.1747 65.2698 53.5914 65.2617C52.3494 65.2455 51.1073 65.2557 49.7816 65.2557Z" fill="#404040"/>
<path d="M71.775 78.1709C70.8329 78.1709 69.8907 78.1797 68.9486 78.1688C68.2451 78.16 67.7991 77.9047 67.7852 77.5359C67.7714 77.1638 68.2088 76.867 68.8985 76.8616C70.8052 76.8463 72.7136 76.8463 74.6221 76.8616C75.3136 76.867 75.7647 77.1583 75.7596 77.5261C75.7544 77.896 75.3049 78.16 74.6048 78.1688C73.6627 78.1808 72.7206 78.172 71.7784 78.172L71.775 78.1709Z" fill="#404040"/>
</svg>
