<svg width="95" height="83" viewBox="0 0 95 83" fill="none" xmlns="http://www.w3.org/2000/svg">
<path d="M8.02247 50.1562C6.0478 50.1562 4.14051 50.1614 2.2358 50.1562C1.0256 50.151 0.312961 49.5491 0.333692 48.5803C0.354424 47.6425 1.03856 47.0716 2.19952 47.0664C4.13014 47.0561 6.06076 47.0638 8.03802 47.0638V43.9689C7.11547 43.9689 6.19292 43.9792 5.26778 43.9689C4.12496 43.9534 3.43305 43.3592 3.43564 42.4188C3.43823 41.4759 4.12496 40.8843 5.27555 40.8791C7.66745 40.8688 10.0593 40.8688 12.4512 40.8791C13.5889 40.8843 14.286 41.4914 14.2808 42.4292C14.2756 43.3644 13.5785 43.9482 12.4383 43.9689C12.0573 43.9767 11.6764 43.9689 11.241 43.9689V47.0638C12.1351 47.0638 13.0576 47.0561 13.9802 47.0638C15.1282 47.0768 15.8227 47.6555 15.8331 48.5907C15.8434 49.5284 15.1463 50.133 14.0139 50.1536C13.1406 50.1691 12.2698 50.1717 11.3965 50.1795C11.3654 50.1795 11.3343 50.195 11.2514 50.2156C11.4198 51.1896 12.0522 51.6804 12.9747 51.6856C18.5022 51.7089 24.0298 51.7114 29.5599 51.6856C30.5964 51.6804 31.3376 50.9287 31.3428 49.8875C31.3713 45.9245 31.3713 41.959 31.3402 37.996C31.3324 37.004 30.5964 36.3039 29.6065 36.2496C28.6788 36.2005 27.7459 36.2393 26.7041 36.2393C26.7041 37.6834 26.7093 39.0578 26.7041 40.4322C26.6989 41.8996 26.1858 42.4214 24.7346 42.4266C22.4386 42.4318 20.1452 42.4318 17.8492 42.4266C16.341 42.424 15.8486 41.9151 15.8434 40.3728C15.8382 39.0268 15.8434 37.6834 15.8434 36.2522C14.7913 36.2522 13.8195 36.1644 12.8762 36.2884C12.389 36.3529 11.8837 36.7224 11.508 37.0789C10.7227 37.8333 9.90385 38.0012 9.20158 37.4251C8.50707 36.8567 8.45265 35.9344 9.09792 35.1C10.0619 33.8496 11.3499 33.1547 12.9281 33.1495C18.4893 33.1262 24.0505 33.0797 29.6091 33.1882C30.7597 33.2115 31.8999 33.847 33.1205 34.2242C34.9993 29.1529 37.6892 24.464 43.7039 22.653C41.496 20.762 40.0733 18.5195 39.4306 15.7914C37.855 9.1081 42.333 2.22327 49.1459 0.879883C56.0365 -0.479001 62.7561 4.20734 63.7797 11.0973C63.873 11.7329 64.0208 12.402 63.9093 13.0117C63.816 13.5154 63.4688 14.0838 63.0593 14.3886C62.6654 14.678 62.4192 14.8898 62.5721 15.3574C62.8779 16.2978 62.9894 17.4061 63.575 18.1294C64.964 19.85 64.2281 21.5654 63.1137 22.7021C62.668 23.1568 62.2871 23.7303 62.0513 24.3168C61.2298 26.3473 59.7708 27.5254 57.239 27.8483C58.6487 29.4526 59.8019 30.9562 61.1598 32.2479C62.3493 33.3794 64.0026 33.3278 65.4979 33.0823C68.0789 32.6561 70.3153 33.0642 72.1449 35.224C72.3107 34.8778 72.4325 34.604 72.5725 34.3379C73.9045 31.8009 76.0191 30.3852 78.8567 30.07C80.3701 29.9021 81.0257 30.5196 81.0283 32.0335C81.0335 35.8698 81.0335 39.7037 81.0283 43.54C81.0283 45.0384 80.3364 45.661 78.8386 45.4725C78.113 45.382 77.4003 45.1754 76.584 45.0023C76.6747 45.2684 76.7395 45.4983 76.8328 45.7153C78.4602 49.5 80.1006 53.2796 81.7099 57.0721C81.9457 57.6301 82.1945 57.9013 82.8786 57.9168C89.9428 58.077 95.3123 63.9104 94.9858 71.0174C94.6748 77.755 88.629 83.0588 81.7591 82.6196C75.9388 82.2476 71.4115 78.0443 70.2661 71.888H46.7903C46.1943 75.4196 44.4813 78.3078 41.4856 80.3746C39.2907 81.8885 36.8444 82.5731 34.1778 82.5395C29.1737 82.4775 23.4285 79.0493 22.1276 71.8131C20.7075 71.8131 19.2615 71.8183 17.8155 71.8131C16.3773 71.8054 15.8434 71.2603 15.859 69.8058C15.9108 65.4217 16.9111 61.2624 18.8909 57.3433C19.1086 56.9145 19.3755 56.5063 19.6528 56.111C19.9301 55.7158 20.2489 55.3515 20.6246 54.8813C20.3344 54.8477 20.1063 54.8012 19.8783 54.8012C17.8414 54.796 15.8045 54.7986 13.7677 54.7986C10.4325 54.7986 8.77399 53.4759 8.03025 50.1562H8.02247ZM48.2545 68.6717C46.4275 65.0083 46.9484 64.6699 46.8836 61.7636C46.8681 61.0247 46.8836 60.2833 46.881 59.5418C46.8732 56.607 45.0541 54.7986 42.0998 54.7986C37.6762 54.7961 33.2501 54.8529 28.8265 54.7805C25.2166 54.7211 22.7392 56.2609 21.2647 59.5392C19.9612 62.4378 19.1475 65.4424 18.9609 68.6742H48.2519L48.2545 68.6717ZM50.3432 37.8772C49.8456 37.1461 49.1744 36.2367 48.5914 35.2757C48.1145 34.4929 48.3607 33.6145 49.0811 33.165C49.8119 32.7103 50.6515 32.9092 51.1932 33.6739C51.3409 33.8832 51.4549 34.1183 51.5948 34.3353C53.414 37.1848 55.9407 39.143 59.1411 40.2358C59.5505 40.3753 59.9859 40.4399 60.2761 40.5097C60.6778 38.9002 61.051 37.3967 61.4423 35.8311C59.1722 35.1077 57.594 33.3458 56.1817 31.3824C55.5805 30.5454 54.9818 29.7032 54.3417 28.8972C53.1497 27.3988 51.6933 26.2776 49.8041 25.7686C45.4531 24.5958 41.4831 26.0864 38.7413 29.9719C36.9688 32.4856 35.9089 35.3144 35.2455 38.2854C34.836 40.1144 34.5976 41.9822 34.2659 43.9224H47.1946C48.27 41.8634 49.2885 39.9103 50.3484 37.8772H50.3432ZM67.2445 68.7207C68.7812 68.7207 70.2661 68.7646 71.7458 68.6923C72.1449 68.6742 72.658 68.4004 72.8938 68.08C74.8788 65.3804 76.7913 62.6316 78.7712 59.9293C79.1547 59.4049 79.1418 59.0045 78.9008 58.4464C76.6721 53.3157 74.4694 48.1721 72.2563 43.0337C72.1449 42.7779 72.0024 42.5325 71.9998 42.5248C69.4006 43.1189 66.9361 43.6847 64.4302 44.2582C64.4561 44.3874 64.5105 44.731 64.5909 45.0694C65.8866 50.6083 67.2445 56.1368 68.4391 61.6964C68.719 63.001 68.5843 64.4452 68.3821 65.7859C68.2344 66.7651 67.6643 67.6796 67.2419 68.7181L67.2445 68.7207ZM60.6312 11.4797C60.2424 7.05428 55.6012 3.41423 50.9314 3.76816C45.8289 4.15309 41.8433 8.75159 42.2475 13.7841C42.5844 17.9848 46.5856 22.2655 49.9855 22.0046C49.9855 20.6586 49.9752 19.3101 49.9855 17.9589C50.0192 14.2465 52.7662 11.5133 56.4952 11.4823C57.848 11.4694 59.2033 11.4823 60.6312 11.4823V11.4797ZM56.148 62.4869C56.148 59.5186 56.2879 56.6199 56.1117 53.7394C55.9173 50.5515 54.0878 48.4511 51.0299 47.5134C50.1177 47.2344 49.1304 47.0897 48.1767 47.0793C43.8827 47.0354 39.5887 47.0587 35.2921 47.0613C35.0433 47.0613 34.7946 47.0845 34.5302 47.0974C34.4603 48.6527 34.3955 50.1433 34.3255 51.7011C36.9973 51.7011 39.739 51.6882 42.4782 51.7037C46.6892 51.7295 49.9415 54.9821 49.9804 59.1905C49.9907 60.2755 49.9804 61.3605 49.9804 62.4869H56.1454H56.148ZM50.5168 44.08C50.9366 44.2247 51.0817 44.2892 51.2346 44.3254C56.1324 45.4673 59.2992 49.4251 59.2966 54.4137C59.2966 56.9248 59.281 59.4385 59.3147 61.9496C59.3199 62.2596 59.5142 62.7659 59.7371 62.8408C61.9891 63.6004 63.2874 65.1763 63.8886 67.6305C64.2903 67.1474 64.6453 66.8245 64.8733 66.4266C65.5963 65.1685 65.7259 63.8122 65.4046 62.4094C64.1244 56.8318 62.8002 51.2619 61.5822 45.6688C61.2972 44.3616 60.8722 43.5349 59.3821 43.4935C58.7316 43.4755 58.0553 43.1887 57.4541 42.8968C55.8474 42.1192 54.2744 41.2718 52.5303 40.3728C51.9136 41.5121 51.2476 42.7392 50.5194 44.08H50.5168ZM78.8956 65.0393C78.9396 65.0807 78.9811 65.122 79.0251 65.1634C79.2998 65.0109 79.5667 64.8353 79.8544 64.7087C82.1789 63.6675 84.4101 63.8458 86.4185 65.4165C88.3595 66.9356 89.1265 68.9997 88.6705 71.4204C88.1444 74.2028 85.8924 76.1843 83.1274 76.4349C80.4323 76.6777 77.9082 75.1044 76.8069 72.5442C76.6825 72.2549 76.3612 71.8777 76.0994 71.8519C75.2417 71.764 74.3683 71.8183 73.4847 71.8183C73.4847 71.9965 73.4691 72.0947 73.4847 72.1877C74.3269 76.7423 79.0718 80.1472 83.6586 79.4936C88.7819 78.7625 92.3866 74.3139 91.8527 69.3769C91.3241 64.4762 86.9653 60.6604 82.2593 61.0014C82.0105 61.0195 81.6917 61.1694 81.5492 61.3605C80.6448 62.5696 79.7793 63.8096 78.9008 65.0393H78.8956ZM43.5588 71.8157C42.6466 71.8157 41.807 71.7795 40.9751 71.8389C40.7367 71.857 40.4024 72.1024 40.3065 72.3272C39.213 74.9081 37.2616 76.3522 34.4732 76.3548C31.6848 76.3574 29.7283 74.9184 28.6347 72.3375C28.544 72.1231 28.2719 71.8519 28.0698 71.8389C27.1783 71.7847 26.2817 71.8157 25.3799 71.8157C25.7867 76.0112 29.9408 79.5246 34.411 79.5479C38.9331 79.5711 43.0768 76.1145 43.5588 71.8157ZM58.9934 14.5979C58.1227 14.5979 57.0265 14.5204 55.9433 14.616C54.3806 14.7529 53.1471 16.0834 53.103 17.6618C53.0512 19.5245 53.0745 21.3897 53.103 23.255C53.1056 23.4875 53.2767 23.8698 53.4477 23.9189C54.4299 24.2108 55.425 24.5338 56.4382 24.6448C58.2704 24.8438 59.0063 24.1411 59.3251 22.3301C59.4132 21.8263 59.8304 21.3561 60.1725 20.9325C60.4005 20.6483 60.7607 20.4674 60.8825 20.377C60.2347 18.3929 59.6335 16.5561 58.996 14.6005L58.9934 14.5979ZM50.3872 65.631C50.9444 67.4652 52.6159 68.682 54.5853 68.713C56.2931 68.7414 58.0034 68.7207 59.7112 68.7052C60.0792 68.7027 60.4446 68.6252 60.8048 68.5838C60.7141 66.8555 59.6516 65.6723 58.1071 65.6439C55.5623 65.5948 53.0149 65.631 50.3872 65.631ZM70.6315 39.3394C69.6338 36.3917 68.2292 35.4617 66.0783 36.216C64.2851 36.8464 63.1604 39.1069 63.8031 40.8559C66.1872 40.9515 68.4365 40.4296 70.6289 39.3368L70.6315 39.3394ZM77.8668 33.5577C76.0968 34.0046 74.8141 35.8078 74.8141 37.7816C74.8141 39.7579 76.115 41.5715 77.8668 41.9926V33.5577ZM80.0073 71.8131C80.8573 73.1513 82.1582 73.6292 83.498 73.2056C84.8973 72.7638 85.7681 71.4979 85.6748 70.0409C85.5866 68.6665 84.5501 67.5039 83.1611 67.2249C81.9042 66.9718 80.6474 67.5556 80.1239 68.6329C80.1446 68.6536 80.1654 68.6897 80.1861 68.6897C80.9273 68.7027 81.6684 68.7001 82.4096 68.7233C83.4565 68.7543 84.1329 69.3898 84.1147 70.2966C84.0966 71.1672 83.4409 71.7769 82.4458 71.8079C81.6762 71.8312 80.9065 71.8131 80.0073 71.8131ZM18.992 39.2593H23.527V36.2832H18.992V39.2593ZM37.0439 71.8674H31.8792C32.5193 72.8826 33.3874 73.3012 34.4136 73.3192C35.4813 73.3373 36.3831 72.9214 37.0439 71.8674Z" fill="#404040"/>
</svg>
