<svg width="28" height="28" viewBox="0 0 28 28" fill="none" xmlns="http://www.w3.org/2000/svg">
<path d="M14.173 6.83372C12.8008 6.83372 11.4593 7.24064 10.3183 8.00303C9.17731 8.76542 8.288 9.84904 7.76286 11.1168C7.23771 12.3847 7.10031 13.7797 7.36803 15.1256C7.63574 16.4715 8.29656 17.7078 9.2669 18.6781C10.2372 19.6485 11.4735 20.3093 12.8194 20.577C14.1653 20.8447 15.5604 20.7073 16.8282 20.1822C18.096 19.657 19.1796 18.7677 19.942 17.6267C20.7044 16.4857 21.1113 15.1443 21.1113 13.772C21.1129 12.8604 20.9346 11.9575 20.5865 11.115C20.2383 10.2724 19.7273 9.50693 19.0827 8.86233C18.4381 8.21773 17.6726 7.70673 16.8301 7.35861C15.9876 7.01049 15.0846 6.83212 14.173 6.83372ZM14.173 18.2818C13.2811 18.2818 12.4092 18.0173 11.6675 17.5217C10.9259 17.0262 10.3479 16.3219 10.0066 15.4978C9.66523 14.6738 9.57592 13.767 9.74993 12.8922C9.92394 12.0174 10.3534 11.2139 10.9842 10.5832C11.6149 9.95245 12.4184 9.52294 13.2932 9.34893C14.168 9.17492 15.0748 9.26423 15.8988 9.60556C16.7229 9.94689 17.4272 10.5249 17.9228 11.2665C18.4183 12.0082 18.6828 12.8801 18.6828 13.772C18.6804 14.9673 18.2045 16.113 17.3593 16.9582C16.514 17.8035 15.3684 18.2794 14.173 18.2818V18.2818ZM23.012 6.55006C23.012 6.87017 22.9171 7.1831 22.7393 7.44927C22.5614 7.71543 22.3086 7.92288 22.0129 8.04539C21.7171 8.16789 21.3917 8.19994 21.0777 8.13749C20.7638 8.07504 20.4754 7.92089 20.249 7.69453C20.0227 7.46818 19.8685 7.17978 19.8061 6.86582C19.7436 6.55185 19.7757 6.22642 19.8982 5.93067C20.0207 5.63492 20.2281 5.38214 20.4943 5.20429C20.7604 5.02645 21.0734 4.93152 21.3935 4.93152C21.6063 4.93072 21.8172 4.97203 22.0141 5.05306C22.2109 5.1341 22.3897 5.25327 22.5403 5.4037C22.6909 5.55414 22.8102 5.73287 22.8914 5.92961C22.9726 6.12635 23.0141 6.33721 23.0135 6.55006H23.012ZM27.6007 8.19135C27.6454 6.0875 26.8601 4.0506 25.4148 2.52117C23.8823 1.08072 21.8475 0.296303 19.7446 0.335311C17.5102 0.207891 10.8146 0.207891 8.5802 0.335311C6.47797 0.293372 4.4428 1.07576 2.91002 2.5151C1.47094 4.04783 0.689529 6.0833 0.73326 8.18528C0.60584 10.4197 0.60584 17.1153 0.73326 19.3497C0.688552 21.4535 1.47378 23.4904 2.91912 25.0198C4.45211 26.4584 6.48587 27.2421 8.58779 27.2042C10.8222 27.3316 17.5178 27.3316 19.7522 27.2042C21.8561 27.2489 23.893 26.4637 25.4224 25.0183C26.8597 23.485 27.6413 21.4509 27.6007 19.3497C27.7342 17.1153 27.7342 10.4257 27.6007 8.19135ZM24.7185 21.7433C24.489 22.3273 24.1415 22.8577 23.6978 23.3013C23.2541 23.745 22.7238 24.0925 22.1398 24.3221C20.359 25.0289 16.1314 24.8651 14.1639 24.8651C12.1965 24.8651 7.96282 25.0168 6.18805 24.3221C5.60409 24.0925 5.07372 23.745 4.63004 23.3013C4.18636 22.8577 3.83889 22.3273 3.60931 21.7433C2.90243 19.9625 3.06626 15.7349 3.06626 13.7675C3.06626 11.8001 2.91457 7.56638 3.60931 5.79161C3.83889 5.20765 4.18636 4.67728 4.63004 4.2336C5.07372 3.78992 5.60409 3.44245 6.18805 3.21287C7.96889 2.506 12.1965 2.66982 14.1639 2.66982C16.1314 2.66982 20.365 2.51813 22.1398 3.21287C22.7238 3.44245 23.2541 3.78992 23.6978 4.2336C24.1415 4.67728 24.489 5.20765 24.7185 5.79161C25.4254 7.57245 25.2616 11.8001 25.2616 13.7675C25.2616 15.7349 25.4285 19.9716 24.7185 21.7433Z" fill="white"/>
</svg>
