<svg width="34" height="33" viewBox="0 0 34 33" fill="none" xmlns="http://www.w3.org/2000/svg">
<path d="M18.3819 16.3984L18.0934 15.7062L18.3819 16.3984C18.8199 16.2159 19.2175 15.9484 19.5523 15.6116C19.887 15.2748 20.1523 14.8752 20.3332 14.4357C20.5141 13.9962 20.6071 13.5254 20.6071 13.05C20.6071 12.0901 20.2282 11.1686 19.5523 10.4884C18.8762 9.80806 17.9582 9.425 17 9.425C16.0418 9.425 15.1238 9.80806 14.4477 10.4884C13.7718 11.1686 13.3929 12.0901 13.3929 13.05C13.3929 14.0099 13.7718 14.9314 14.4477 15.6116C15.1238 16.2919 16.0418 16.675 17 16.675C17.4743 16.675 17.9439 16.581 18.3819 16.3984ZM17 26.8512C16.8142 26.6306 16.5888 26.3584 16.3338 26.0422C15.5934 25.1243 14.6074 23.8397 13.6229 22.3714C12.637 20.901 11.6617 19.2599 10.9352 17.628C10.2043 15.9863 9.75 14.4086 9.75 13.05C9.75 11.1124 10.515 9.25513 11.8751 7.88647C13.2351 6.51796 15.0787 5.75 17 5.75C18.9213 5.75 20.7649 6.51796 22.1249 7.88647C23.485 9.25513 24.25 11.1124 24.25 13.05C24.25 14.4086 23.7957 15.9863 23.0648 17.628C22.3383 19.2599 21.363 20.901 20.3771 22.3714C19.3926 23.8397 18.4066 25.1243 17.6662 26.0422C17.4112 26.3584 17.1858 26.6306 17 26.8512Z" stroke="url(#paint0_linear_154_20)" stroke-width="1.5"/>
<defs>
<linearGradient id="paint0_linear_154_20" x1="17" y1="5" x2="17" y2="28" gradientUnits="userSpaceOnUse">
<stop stop-color="#FF0072"/>
<stop offset="1" stop-color="#FF7F47"/>
</linearGradient>
</defs>
</svg>
