<svg width="74" height="73" viewBox="0 0 74 73" fill="none" xmlns="http://www.w3.org/2000/svg">
<path d="M37.1485 4.5625C30.4956 4.57035 24.1175 7.21667 19.4132 11.921C14.7089 16.6252 12.0626 23.0034 12.0547 29.6562C12.0468 35.093 13.8227 40.3822 17.11 44.7125C17.11 44.7125 17.7944 45.6136 17.9062 45.7436L37.1485 68.4375L56.4 45.7322C56.5003 45.6113 57.187 44.7125 57.187 44.7125L57.1893 44.7057C60.475 40.3772 62.25 35.0905 62.2422 29.6562C62.2344 23.0034 59.5881 16.6252 54.8838 11.921C50.1795 7.21667 43.8014 4.57035 37.1485 4.5625ZM37.1485 38.7812C35.3437 38.7812 33.5795 38.2461 32.0789 37.2434C30.5783 36.2407 29.4087 34.8156 28.7181 33.1482C28.0274 31.4809 27.8467 29.6461 28.1988 27.8761C28.5509 26.106 29.42 24.4801 30.6961 23.2039C31.9723 21.9277 33.5982 21.0587 35.3683 20.7066C37.1384 20.3545 38.9731 20.5352 40.6405 21.2258C42.3079 21.9165 43.733 23.0861 44.7357 24.5867C45.7383 26.0873 46.2735 27.8515 46.2735 29.6562C46.2705 32.0754 45.3081 34.3946 43.5975 36.1053C41.8869 37.8159 39.5677 38.7782 37.1485 38.7812Z" fill="url(#paint0_linear_270_379)"/>
<defs>
<linearGradient id="paint0_linear_270_379" x1="36.7876" y1="3.91743" x2="36.7876" y2="68.4374" gradientUnits="userSpaceOnUse">
<stop stop-color="#FF0072"/>
<stop offset="1" stop-color="#FF7F47"/>
</linearGradient>
</defs>
</svg>
