<svg width="47" height="46" viewBox="0 0 47 46" fill="none" xmlns="http://www.w3.org/2000/svg">
<path d="M39.905 22.7414L41.958 19.1541C42.2048 18.7225 42.27 18.2106 42.1394 17.7309C42.0088 17.2513 41.6931 16.8431 41.2616 16.5961L37.6706 14.5431L37.6511 10.4181C37.6487 9.92086 37.4489 9.44489 37.0956 9.09492C36.7424 8.74496 36.2645 8.54967 35.7672 8.55202L31.6442 8.57151L29.5591 5.00195C29.3073 4.5736 28.897 4.26164 28.4169 4.13358C28.1788 4.07024 27.9305 4.05479 27.6863 4.08813C27.4422 4.12147 27.2071 4.20293 26.9947 4.32781L23.4233 6.41471L19.8322 4.35978C19.4004 4.11319 18.8883 4.04823 18.4086 4.1792C17.9289 4.31016 17.5209 4.62632 17.2743 5.05813L15.2212 8.64912L11.0981 8.6686C10.6009 8.67095 10.1249 8.87075 9.77492 9.22404C9.42496 9.57733 9.22967 10.0552 9.23202 10.5524L9.25151 14.6755L5.68008 16.7624C5.46697 16.8863 5.28045 17.0512 5.13123 17.2474C4.98202 17.4436 4.87304 17.6674 4.81058 17.9059C4.74811 18.1443 4.73338 18.3928 4.76723 18.637C4.80108 18.8812 4.88284 19.1163 5.00782 19.3288L7.09471 22.8964L5.04164 26.4837C4.79615 26.9157 4.73141 27.4272 4.86153 27.9067C4.99165 28.3862 5.30607 28.7949 5.73624 29.0435L9.32723 31.0966L9.34672 35.2197C9.34907 35.717 9.54887 36.1929 9.90215 36.5429C10.2554 36.8929 10.7333 37.0881 11.2306 37.0858L15.3555 37.0663L17.4424 40.6377C17.6098 40.9207 17.8479 41.1552 18.1333 41.3183C18.4188 41.4813 18.7418 41.5672 19.0706 41.5675C19.3968 41.566 19.7208 41.4782 20.0087 41.31L23.5764 39.2231L27.1674 41.2762C27.5991 41.5224 28.1109 41.5874 28.5904 41.4568C29.0699 41.3262 29.4781 41.0108 29.7254 40.5797L31.7766 36.9887L35.8997 36.9692C36.3969 36.9669 36.8729 36.7671 37.2229 36.4138C37.5728 36.0605 37.7681 35.5826 37.7658 35.0854L37.7463 30.9623L41.3177 28.8754C41.5305 28.7511 41.7166 28.5861 41.8656 28.3899C42.0145 28.1936 42.1233 27.9699 42.1857 27.7315C42.2481 27.4932 42.263 27.2449 42.2294 27.0008C42.1958 26.7567 42.1145 26.5217 41.99 26.3091L39.905 22.7414ZM18.7671 13.4474C19.5132 13.4441 20.2301 13.7374 20.7601 14.2627C21.29 14.788 21.5895 15.5023 21.5928 16.2485C21.5961 16.9946 21.3028 17.7115 20.7775 18.2415C20.2522 18.7714 19.5379 19.071 18.7918 19.0742C18.0456 19.0775 17.3287 18.7842 16.7988 18.2589C16.2688 17.7336 15.9693 17.0193 15.966 16.2732C15.9627 15.527 16.256 14.8101 16.7813 14.2802C17.3066 13.7502 18.0209 13.4507 18.7671 13.4474ZM19.4146 31.4446L16.404 29.2106L27.583 14.1576L30.5936 16.3916L19.4146 31.4446ZM28.2306 32.1529C27.8611 32.1545 27.4949 32.0834 27.153 31.9435C26.811 31.8036 26.5 31.5977 26.2376 31.3376C25.9752 31.0775 25.7666 30.7683 25.6237 30.4276C25.4808 30.0868 25.4064 29.7213 25.4048 29.3518C25.4032 28.9824 25.4743 28.6162 25.6142 28.2743C25.7541 27.9323 25.96 27.6212 26.2201 27.3588C26.4802 27.0965 26.7894 26.8879 27.1301 26.745C27.4709 26.6021 27.8364 26.5277 28.2058 26.5261C28.952 26.5228 29.6689 26.8161 30.1988 27.3414C30.7288 27.8667 31.0283 28.581 31.0316 29.3271C31.0349 30.0733 30.7416 30.7902 30.2163 31.3201C29.691 31.8501 28.9767 32.1496 28.2306 32.1529Z" fill="#FF5854"/>
</svg>
