<svg width="80" height="76" viewBox="0 0 80 76" fill="none" xmlns="http://www.w3.org/2000/svg">
<path d="M69.1635 38.6286L72.8435 32.5866C73.2857 31.8596 73.406 30.9956 73.1779 30.1844C72.9497 29.3733 72.3918 28.6814 71.6268 28.2609L65.2601 24.7649V17.7982C65.2601 16.9584 64.9089 16.1529 64.2838 15.5591C63.6587 14.9652 62.8108 14.6316 61.9268 14.6316H54.5968L50.9201 8.58641C50.4761 7.86098 49.7492 7.33085 48.8968 7.11075C48.474 7.00186 48.0327 6.97379 47.5984 7.02815C47.1641 7.0825 46.7455 7.21822 46.3668 7.42741L40.0001 10.9234L33.6334 7.42425C32.8679 7.00434 31.958 6.89055 31.1041 7.1079C30.2502 7.32525 29.5222 7.85595 29.0801 8.58325L25.4001 14.6316H18.0701C17.1861 14.6316 16.3382 14.9652 15.7131 15.5591C15.088 16.1529 14.7368 16.9584 14.7368 17.7982V24.7617L8.37012 28.2577C7.99022 28.4653 7.65725 28.7422 7.39033 29.0724C7.12341 29.4026 6.9278 29.7797 6.81475 30.1819C6.70169 30.5842 6.67341 31.0037 6.73154 31.4164C6.78966 31.829 6.93305 32.2267 7.15345 32.5866L10.8334 38.6286L7.15345 44.6706C6.71341 45.3982 6.59402 46.2616 6.82131 47.0725C7.0486 47.8834 7.60413 48.576 8.36678 48.9994L14.7335 52.4954V59.4589C14.7335 60.2988 15.0846 61.1042 15.7098 61.6981C16.3349 62.292 17.1827 62.6256 18.0668 62.6256H25.4001L29.0801 68.6739C29.3752 69.1532 29.7966 69.5512 30.3027 69.8288C30.8089 70.1064 31.3823 70.2541 31.9668 70.2572C32.5468 70.2572 33.1234 70.1116 33.6368 69.8298L39.9968 66.3337L46.3634 69.8298C47.1288 70.2491 48.0381 70.3629 48.8917 70.1462C49.7453 69.9295 50.4736 69.4 50.9168 68.6739L54.5934 62.6256H61.9235C62.8075 62.6256 63.6554 62.292 64.2805 61.6981C64.9056 61.1042 65.2568 60.2988 65.2568 59.4589V52.4954L71.6235 48.9994C72.0027 48.7912 72.335 48.5141 72.6014 48.1838C72.8679 47.8535 73.0631 47.4766 73.1761 47.0745C73.2891 46.6725 73.3176 46.2533 73.26 45.8408C73.2023 45.4283 73.0596 45.0307 72.8401 44.6706L69.1635 38.6286ZM31.6634 22.7636C32.99 22.764 34.262 23.265 35.1997 24.1564C36.1374 25.0478 36.6639 26.2565 36.6634 27.5167C36.663 28.7769 36.1356 29.9854 35.1973 30.8762C34.259 31.767 32.9866 32.2672 31.6601 32.2667C30.3336 32.2663 29.0616 31.7653 28.1239 30.8739C27.1862 29.9825 26.6597 28.7738 26.6601 27.5136C26.6606 26.2534 27.1879 25.045 28.1262 24.1542C29.0646 23.2634 30.3369 22.7632 31.6634 22.7636ZM32.6634 53.1636L27.3301 49.3667L47.3301 24.0334L52.6634 27.8302L32.6634 53.1636ZM48.3301 54.4302C47.6733 54.43 47.0229 54.3069 46.4162 54.0679C45.8094 53.829 45.2582 53.4788 44.7939 53.0374C44.3296 52.596 43.9614 52.0721 43.7102 51.4956C43.4591 50.919 43.3299 50.3011 43.3301 49.6771C43.3303 49.0531 43.4599 48.4353 43.7115 47.8588C43.963 47.2824 44.3316 46.7587 44.7962 46.3177C45.2609 45.8766 45.8124 45.5268 46.4193 45.2882C47.0262 45.0496 47.6766 44.9269 48.3335 44.9271C49.66 44.9275 50.932 45.4285 51.8697 46.3199C52.8074 47.2113 53.3339 48.42 53.3335 49.6802C53.333 50.9404 52.8056 52.1489 51.8673 53.0397C50.929 53.9305 49.6566 54.4307 48.3301 54.4302Z" fill="url(#paint0_linear_285_544)"/>
<defs>
<linearGradient id="paint0_linear_285_544" x1="39.9965" y1="7" x2="39.9965" y2="70.2572" gradientUnits="userSpaceOnUse">
<stop stop-color="#FF0072"/>
<stop offset="1" stop-color="#FF7F47"/>
</linearGradient>
</defs>
</svg>
