<svg width="28" height="27" viewBox="0 0 28 27" fill="none" xmlns="http://www.w3.org/2000/svg">
<path fill-rule="evenodd" clip-rule="evenodd" d="M13.6986 7.30005C9.07917 7.30005 5.1342 9.96774 3.53589 13.7334C5.1342 17.499 9.07917 20.1667 13.6986 20.1667C18.318 20.1667 22.2629 17.499 23.8612 13.7334C22.2629 9.96774 18.318 7.30005 13.6986 7.30005ZM13.6986 18.0223C11.1487 18.0223 9.07917 16.1009 9.07917 13.7334C9.07917 11.3659 11.1487 9.44449 13.6986 9.44449C16.2485 9.44449 18.318 11.3659 18.318 13.7334C18.318 16.1009 16.2485 18.0223 13.6986 18.0223ZM13.6986 11.1601C12.1649 11.1601 10.9269 12.3095 10.9269 13.7334C10.9269 15.1573 12.1649 16.3067 13.6986 16.3067C15.2322 16.3067 16.4702 15.1573 16.4702 13.7334C16.4702 12.3095 15.2322 11.1601 13.6986 11.1601Z" fill="#898989"/>
</svg>
