<svg width="45" height="45" viewBox="0 0 45 45" fill="none" xmlns="http://www.w3.org/2000/svg">
<path d="M32.5706 37.1756L37.8956 31.9331L36.7219 30.7575L32.5706 34.8506L30.7781 33.0225L29.6025 34.2075L32.5706 37.1756ZM12.6937 16.3687H32.31V14.4938H12.6919L12.6937 16.3687ZM33.75 41.4656C31.6612 41.4656 29.8887 40.7381 28.4325 39.2831C26.9762 37.8281 26.2488 36.0556 26.25 33.9656C26.2512 31.8756 26.9787 30.1038 28.4325 28.65C29.8862 27.1962 31.6588 26.4681 33.75 26.4656C35.8412 26.4631 37.6138 27.1912 39.0675 28.65C40.5213 30.1087 41.2487 31.8806 41.25 33.9656C41.2513 36.0506 40.5238 37.8231 39.0675 39.2831C37.6113 40.7431 35.8388 41.4706 33.75 41.4656ZM7.5 38.9438V10.5281C7.5 9.69062 7.795 8.97625 8.385 8.385C8.975 7.795 9.68937 7.5 10.5281 7.5H34.4719C35.3094 7.5 36.0238 7.795 36.615 8.385C37.205 8.975 37.5 9.68937 37.5 10.5281V21.675C37.195 21.5625 36.8919 21.4663 36.5906 21.3863C36.2906 21.3063 35.9688 21.2437 35.625 21.1987V10.53C35.625 10.2413 35.505 9.97625 35.265 9.735C35.025 9.49375 34.7606 9.37375 34.4719 9.375H10.5281C10.2406 9.375 9.97625 9.495 9.735 9.735C9.49375 9.975 9.37375 10.2394 9.375 10.5281V35.7187H21.27C21.355 36.2312 21.465 36.7325 21.6 37.2225C21.735 37.7125 21.9244 38.18 22.1681 38.625L22.1025 38.6906L19.9763 37.14L17.4525 38.9419L14.9288 37.14L12.4031 38.9419L9.87937 37.14L7.5 38.9438ZM12.6937 30.5063H21.5231C21.5931 30.1625 21.6794 29.8406 21.7819 29.5406C21.8844 29.2406 22.005 28.9375 22.1438 28.6313H12.6937V30.5063ZM12.6937 23.4394H26.4C27.0125 22.9556 27.6688 22.5525 28.3687 22.23C29.0688 21.9062 29.8169 21.6844 30.6131 21.5644H12.6919L12.6937 23.4394Z" fill="#B1B1B1"/>
</svg>
