<svg width="812" height="1183" viewBox="0 0 812 1183" fill="none" xmlns="http://www.w3.org/2000/svg">
<path d="M530.34 1182.48C430.087 1182.48 340.82 1165.31 262.54 1130.98C184.26 1096.65 122.46 1049.95 77.14 990.9C31.82 930.473 6.41334 863.18 0.920003 789.02H349.06C353.18 828.847 371.72 861.12 404.68 885.84C437.64 910.56 478.153 922.92 526.22 922.92C570.167 922.92 603.813 914.68 627.16 898.2C651.88 880.347 664.24 857.687 664.24 830.22C664.24 797.26 647.073 773.227 612.74 758.12C578.407 741.64 522.787 723.787 445.88 704.56C363.48 685.333 294.813 665.42 239.88 644.82C184.947 622.847 137.567 589.2 97.74 543.88C57.9133 497.187 38 434.7 38 356.42C38 290.5 55.8533 230.76 91.56 177.2C128.64 122.267 182.2 79.0066 252.24 47.4199C323.653 15.8332 408.113 0.0399086 505.62 0.0399086C649.82 0.0399086 763.12 35.7466 845.52 107.16C929.293 178.573 977.36 273.333 989.72 391.44H664.24C658.747 351.613 640.893 320.027 610.68 296.68C581.84 273.333 543.387 261.66 495.32 261.66C454.12 261.66 422.533 269.9 400.56 286.38C378.587 301.487 367.6 322.773 367.6 350.24C367.6 383.2 384.767 407.92 419.1 424.4C454.807 440.88 509.74 457.36 583.9 473.84C669.047 495.813 738.4 517.787 791.96 539.76C845.52 560.36 892.213 594.693 932.04 642.76C973.24 689.453 994.527 752.627 995.9 832.28C995.9 899.573 976.673 960 938.22 1013.56C901.14 1065.75 846.893 1106.95 775.48 1137.16C705.44 1167.37 623.727 1182.48 530.34 1182.48Z" fill="#F5F5F5"/>
</svg>
