<svg width="25" height="25" viewBox="0 0 25 25" fill="none" xmlns="http://www.w3.org/2000/svg">
<path d="M10.75 18.5C12.525 18.4996 14.2488 17.9054 15.647 16.812L20.043 21.208L21.457 19.794L17.061 15.398C18.155 13.9997 18.7496 12.2754 18.75 10.5C18.75 6.089 15.161 2.5 10.75 2.5C6.339 2.5 2.75 6.089 2.75 10.5C2.75 14.911 6.339 18.5 10.75 18.5ZM10.75 4.5C14.059 4.5 16.75 7.191 16.75 10.5C16.75 13.809 14.059 16.5 10.75 16.5C7.441 16.5 4.75 13.809 4.75 10.5C4.75 7.191 7.441 4.5 10.75 4.5Z" fill="url(#paint0_linear_83_15)"/>
<defs>
<linearGradient id="paint0_linear_83_15" x1="12.1035" y1="2.5" x2="12.1035" y2="21.208" gradientUnits="userSpaceOnUse">
<stop stop-color="#FF0072"/>
<stop offset="1" stop-color="#FF7F47"/>
</linearGradient>
</defs>
</svg>
