<svg width="418" height="20" viewBox="0 0 418 20" fill="none" xmlns="http://www.w3.org/2000/svg">
<g clip-path="url(#clip0_291_993)">
<path d="M206.17 15.026C205.48 15.026 204.875 14.862 204.355 14.5338C203.838 14.2057 203.434 13.7467 203.142 13.1567C202.853 12.5668 202.709 11.8774 202.709 11.0885C202.709 10.2931 202.853 9.59871 203.142 9.00544C203.434 8.41216 203.838 7.95146 204.355 7.62334C204.875 7.29521 205.48 7.13115 206.17 7.13115C206.859 7.13115 207.462 7.29521 207.979 7.62334C208.5 7.95146 208.904 8.41216 209.192 9.00544C209.484 9.59871 209.63 10.2931 209.63 11.0885C209.63 11.8774 209.484 12.5668 209.192 13.1567C208.904 13.7467 208.5 14.2057 207.979 14.5338C207.462 14.862 206.859 15.026 206.17 15.026ZM206.17 13.9721C206.693 13.9721 207.124 13.8378 207.462 13.5694C207.8 13.3009 208.05 12.9479 208.213 12.5104C208.375 12.0729 208.456 11.599 208.456 11.0885C208.456 10.5781 208.375 10.1025 208.213 9.66169C208.05 9.22087 207.8 8.86458 207.462 8.5928C207.124 8.32102 206.693 8.18512 206.17 8.18512C205.646 8.18512 205.215 8.32102 204.877 8.5928C204.539 8.86458 204.289 9.22087 204.126 9.66169C203.964 10.1025 203.883 10.5781 203.883 11.0885C203.883 11.599 203.964 12.0729 204.126 12.5104C204.289 12.9479 204.539 13.3009 204.877 13.5694C205.215 13.8378 205.646 13.9721 206.17 13.9721ZM211.421 14.8669V7.23058H212.554V8.38399H212.634C212.773 8.00615 213.025 7.69957 213.39 7.46424C213.754 7.22892 214.165 7.11126 214.622 7.11126C214.709 7.11126 214.816 7.11292 214.946 7.11623C215.075 7.11955 215.173 7.12452 215.239 7.13115V8.32433C215.199 8.31439 215.108 8.29947 214.966 8.27959C214.826 8.25638 214.679 8.24478 214.523 8.24478C214.152 8.24478 213.82 8.32267 213.529 8.47845C213.24 8.63091 213.012 8.84303 212.843 9.11481C212.677 9.38328 212.594 9.68986 212.594 10.0346V14.8669H211.421Z" fill="#898989"/>
<rect x="-0.0065918" y="9.4447" width="187.445" height="1.07222" fill="#DCDCDC"/>
<rect x="230.347" y="9.4447" width="187.445" height="1.07222" fill="#DCDCDC"/>
</g>
<defs>
<clipPath id="clip0_291_993">
<rect width="417.799" height="18.2278" fill="white" transform="translate(-0.0065918 0.866943)"/>
</clipPath>
</defs>
</svg>
