<svg width="37" height="37" viewBox="0 0 37 37" fill="none" xmlns="http://www.w3.org/2000/svg">
<g clip-path="url(#clip0_237_244)">
<path d="M33.0761 14.0394H32.3088C32.0596 13.2595 31.7452 12.5019 31.3685 11.774L31.9118 11.2306C33.2292 9.91465 33.1939 7.80569 31.9123 6.52535L30.3093 4.92246C29.0297 3.64121 26.9203 3.60408 25.604 4.92197L25.0603 5.46572C24.3324 5.0891 23.5747 4.77459 22.7948 4.52537V3.75809C22.7948 1.92376 21.3025 0.431396 19.4681 0.431396H17.2001C15.3657 0.431396 13.8734 1.92376 13.8734 3.75809V4.52537C13.0935 4.77452 12.3359 5.08903 11.6079 5.46572L11.0647 4.92246C9.75096 3.60719 7.64165 3.63803 6.35948 4.92204L4.75638 6.525C3.47519 7.80478 3.43814 9.91387 4.75595 11.2303L5.29971 11.774C4.92302 12.5019 4.60858 13.2595 4.35936 14.0395H3.59214C1.75781 14.0394 0.265381 15.5318 0.265381 17.3661V19.6341C0.265381 21.4685 1.75781 22.9608 3.59214 22.9608H4.35936C4.60858 23.7408 4.92302 24.4984 5.29971 25.2263L4.75638 25.7696C3.43898 27.0856 3.47427 29.1945 4.75595 30.4749L6.35892 32.0778C7.63848 33.359 9.74786 33.3962 11.0642 32.0783L11.6079 31.5345C12.3359 31.9111 13.0935 32.2256 13.8734 32.4749V33.2421C13.8734 35.0765 15.3658 36.5688 17.2001 36.5688H19.4681C21.3025 36.5688 22.7949 35.0765 22.7949 33.2421V32.4749C23.5747 32.2257 24.3324 31.9112 25.0603 31.5345L25.6036 32.0778C26.9173 33.393 29.0265 33.3622 30.3088 32.0782L31.9119 30.4752C33.1931 29.1954 33.2301 27.0863 31.9123 25.7699L31.3686 25.2261C31.7453 24.4982 32.0597 23.7407 32.3089 22.9607H33.0761C34.9105 22.9607 36.4029 21.4683 36.4029 19.634V17.366C36.4028 15.5318 34.9104 14.0394 33.0761 14.0394ZM18.3341 26.3628C13.9985 26.3628 10.4714 22.8356 10.4714 18.5001C10.4714 14.1646 13.9985 10.6374 18.3341 10.6374C22.6697 10.6374 26.1968 14.1646 26.1968 18.5001C26.1968 22.8356 22.6697 26.3628 18.3341 26.3628Z" fill="#B1B1B1"/>
</g>
<defs>
<clipPath id="clip0_237_244">
<rect width="36.1374" height="36.1374" fill="white" transform="translate(0.265381 0.431396)"/>
</clipPath>
</defs>
</svg>
