<svg width="32" height="22" viewBox="0 0 32 22" fill="none" xmlns="http://www.w3.org/2000/svg">
<path d="M28.1182 5.52892C28.1379 5.76761 28.1379 6.00629 28.1379 6.24498C28.1548 8.3071 27.7001 10.3516 26.8002 12.2596C25.9003 14.1676 24.5731 15.9011 22.8957 17.3592C21.2184 18.8174 19.2244 19.9712 17.0296 20.7536C14.8348 21.5359 12.4831 21.9312 10.111 21.9165C6.66157 21.9245 3.28293 21.0659 0.381592 19.4439C0.889802 19.4927 1.40086 19.5156 1.91215 19.5125C4.76415 19.5187 7.5354 18.6895 9.77881 17.1586C8.45615 17.1373 7.17419 16.7573 6.11215 16.0716C5.0501 15.386 4.26105 14.429 3.8553 13.3343C4.25121 13.389 4.65128 13.4176 5.05214 13.4201C5.61518 13.4188 6.1758 13.3559 6.72073 13.2328C5.28584 12.9805 3.9957 12.3041 3.0696 11.3184C2.14349 10.3328 1.63856 9.09877 1.64062 7.82611V7.76149C2.5186 8.18733 3.4999 8.42681 4.50454 8.4604C3.15989 7.6807 2.2082 6.48429 1.8437 5.11535C1.47921 3.74641 1.72939 2.30815 2.54318 1.09411C4.13457 2.79696 6.11987 4.19005 8.37035 5.18303C10.6208 6.17602 13.0863 6.74673 15.6068 6.85818C15.5068 6.44311 15.456 6.02024 15.4551 5.59617C15.4582 4.49305 15.8419 3.41611 16.5565 2.50457C17.2711 1.59303 18.2839 0.888801 19.4638 0.482935C20.6437 0.0770683 21.9365 -0.0117728 23.1751 0.22789C24.4137 0.467553 25.5412 1.0247 26.4117 1.82731C27.8306 1.58961 29.1913 1.13939 30.433 0.496733C29.96 1.76862 28.9698 2.84697 27.6479 3.52976C28.9061 3.40505 30.1358 3.11747 31.2961 2.67656C30.4286 3.77467 29.3543 4.73766 28.1182 5.52496V5.52892Z" fill="white"/>
</svg>
