<svg width="16" height="21" viewBox="0 0 16 21" fill="none" xmlns="http://www.w3.org/2000/svg">
<path fill-rule="evenodd" clip-rule="evenodd" d="M5.5 4.37037C5.5 2.83871 6.58706 1.75 7.75 1.75C8.91294 1.75 10 2.83871 10 4.37037V10.6296C10 12.1613 8.91294 13.25 7.75 13.25C6.58706 13.25 5.5 12.1613 5.5 10.6296V4.37037ZM7.75 0.25C5.59923 0.25 4 2.17922 4 4.37037V10.6296C4 12.8208 5.59923 14.75 7.75 14.75C9.90077 14.75 11.5 12.8208 11.5 10.6296V4.37037C11.5 2.17922 9.90077 0.25 7.75 0.25ZM1.5 10C1.5 9.58578 1.16421 9.25 0.75 9.25C0.335786 9.25 0 9.58578 0 10C0 14.0886 3.06037 17.4718 7 17.8564V20C7 20.4142 7.33579 20.75 7.75 20.75C8.16421 20.75 8.5 20.4142 8.5 20V17.8564C12.4396 17.4718 15.5 14.0886 15.5 10C15.5 9.58578 15.1642 9.25 14.75 9.25C14.3358 9.25 14 9.58578 14 10C14 13.5449 11.1874 16.3929 7.75 16.3929C4.31256 16.3929 1.5 13.5449 1.5 10Z" fill="url(#paint0_linear_83_23)"/>
<defs>
<linearGradient id="paint0_linear_83_23" x1="7.75" y1="0.25" x2="7.75" y2="20.75" gradientUnits="userSpaceOnUse">
<stop stop-color="#FF0072"/>
<stop offset="1" stop-color="#FF7F47"/>
</linearGradient>
</defs>
</svg>
