<svg width="37" height="37" viewBox="0 0 37 37" fill="none" xmlns="http://www.w3.org/2000/svg">
<g clip-path="url(#clip0_237_284)">
<path d="M17.8112 17.8389C20.2027 17.8389 22.2736 16.9812 23.9656 15.2889C25.6576 13.5969 26.5153 11.5266 26.5153 9.13487C26.5153 6.74395 25.6576 4.6734 23.9653 2.98085C22.273 1.28912 20.2024 0.431396 17.8112 0.431396C15.4195 0.431396 13.3492 1.28912 11.6572 2.98112C9.96518 4.67313 9.10718 6.74368 9.10718 9.13487C9.10718 11.5266 9.96518 13.5972 11.6575 15.2892C13.3498 16.9809 15.4203 17.8389 17.8112 17.8389Z" fill="#B1B1B1"/>
<path d="M33.0409 28.2193C32.9921 27.5151 32.8934 26.747 32.7481 25.9359C32.6015 25.1187 32.4126 24.3462 32.1865 23.6401C31.953 22.9103 31.6354 22.1896 31.2428 21.499C30.8353 20.7821 30.3567 20.1579 29.8196 19.6443C29.258 19.1069 28.5703 18.6749 27.7752 18.3598C26.9828 18.0463 26.1047 17.8875 25.1654 17.8875C24.7965 17.8875 24.4397 18.0388 23.7507 18.4874C23.3267 18.764 22.8307 19.0838 22.2771 19.4375C21.8037 19.7391 21.1624 20.0217 20.3703 20.2776C19.5975 20.5276 18.8128 20.6545 18.0383 20.6545C17.2639 20.6545 16.4795 20.5276 15.7059 20.2776C14.9146 20.022 14.2733 19.7394 13.8005 19.4378C13.2521 19.0874 12.7558 18.7675 12.3254 18.4871C11.6373 18.0386 11.2802 17.8872 10.9113 17.8872C9.97172 17.8872 9.09387 18.0463 8.30176 18.36C7.50718 18.6746 6.81929 19.1067 6.25712 19.6446C5.72032 20.1585 5.24142 20.7824 4.83447 21.499C4.44214 22.1896 4.12453 22.91 3.89073 23.6404C3.66493 24.3464 3.47607 25.1187 3.32939 25.9359C3.18409 26.7459 3.08539 27.5143 3.03659 28.2201C2.98862 28.9116 2.96436 29.6292 2.96436 30.3541C2.96436 32.2404 3.56402 33.7676 4.74652 34.8938C5.91442 36.0052 7.45975 36.569 9.33897 36.569H26.7394C28.6186 36.569 30.1634 36.0055 31.3316 34.8938C32.5143 33.7684 33.114 32.241 33.114 30.3538C33.1137 29.6256 33.0892 28.9074 33.0409 28.2193Z" fill="#B1B1B1"/>
</g>
<defs>
<clipPath id="clip0_237_284">
<rect width="36.1374" height="36.1374" fill="white" transform="translate(0 0.431396)"/>
</clipPath>
</defs>
</svg>
