<svg width="1920" height="1080" viewBox="0 0 1920 1080" fill="none" xmlns="http://www.w3.org/2000/svg">
<mask id="mask0_273_535" style="mask-type:alpha" maskUnits="userSpaceOnUse" x="0" y="0" width="1923" height="592">
<rect width="1923" height="592" fill="#D9D9D9"/>
</mask>
<g mask="url(#mask0_273_535)">
<path d="M839.977 273.706C718.918 -0.955688 1276.66 28.6627 1722 -4.00031H-4C-38.9463 -4.00031 -15.0609 389.123 -0.5 588C436.49 607.985 961.036 548.368 839.977 273.706Z" fill="url(#paint0_linear_273_535)"/>
</g>
<mask id="mask1_273_535" style="mask-type:alpha" maskUnits="userSpaceOnUse" x="0" y="569" width="1920" height="511">
<rect y="569" width="1920" height="511" fill="#D9D9D9"/>
</mask>
<g mask="url(#mask1_273_535)">
<path d="M0 1108.5C489.406 1080.39 1102.33 1077.38 969.296 841.042C836.258 604.703 1528.14 566.897 2008.37 584.093C2008.37 759.268 2064.9 1120.5 2026.5 1120.5C2024.22 1120.5 2017.19 1120.46 2005.87 1120.38L0 1108.5Z" fill="url(#paint1_linear_273_535)"/>
</g>
<defs>
<linearGradient id="paint0_linear_273_535" x1="861" y1="595.858" x2="861" y2="-3.99967" gradientUnits="userSpaceOnUse">
<stop stop-color="#FF0072"/>
<stop offset="1" stop-color="#FF7F47"/>
</linearGradient>
<linearGradient id="paint1_linear_273_535" x1="946.192" y1="563.839" x2="946.192" y2="1080" gradientUnits="userSpaceOnUse">
<stop stop-color="#FF0072"/>
<stop offset="1" stop-color="#FF7F47"/>
</linearGradient>
</defs>
</svg>
