<svg width="341" height="37" viewBox="0 0 341 37" fill="none" xmlns="http://www.w3.org/2000/svg">
<path d="M29.691 3.241L17.33 36H12.395L0.0340001 3.241H4.593L14.886 31.488L25.179 3.241H29.691ZM36.5897 6.061C35.7751 6.061 35.0857 5.779 34.5217 5.215C33.9577 4.651 33.6757 3.96166 33.6757 3.147C33.6757 2.33233 33.9577 1.643 34.5217 1.079C35.0857 0.514998 35.7751 0.232998 36.5897 0.232998C37.3731 0.232998 38.0311 0.514998 38.5637 1.079C39.1277 1.643 39.4097 2.33233 39.4097 3.147C39.4097 3.96166 39.1277 4.651 38.5637 5.215C38.0311 5.779 37.3731 6.061 36.5897 6.061ZM38.6577 10.244V36H34.3807V10.244H38.6577ZM69.4471 22.135C69.4471 22.9497 69.4001 23.8113 69.3061 24.72H48.7201C48.8768 27.258 49.7385 29.2477 51.3051 30.689C52.9031 32.099 54.8301 32.804 57.0861 32.804C58.9348 32.804 60.4701 32.381 61.6921 31.535C62.9455 30.6577 63.8228 29.4983 64.3241 28.057H68.9301C68.2408 30.5323 66.8621 32.5533 64.7941 34.12C62.7261 35.6553 60.1568 36.423 57.0861 36.423C54.6421 36.423 52.4488 35.8747 50.5061 34.778C48.5948 33.6813 47.0908 32.1303 45.9941 30.125C44.8975 28.0883 44.3491 25.7383 44.3491 23.075C44.3491 20.4117 44.8818 18.0773 45.9471 16.072C47.0125 14.0667 48.5008 12.5313 50.4121 11.466C52.3548 10.3693 54.5795 9.821 57.0861 9.821C59.5301 9.821 61.6921 10.3537 63.5721 11.419C65.4521 12.4843 66.8935 13.957 67.8961 15.837C68.9301 17.6857 69.4471 19.785 69.4471 22.135ZM65.0291 21.242C65.0291 19.6127 64.6688 18.2183 63.9481 17.059C63.2275 15.8683 62.2405 14.9753 60.9871 14.38C59.7651 13.7533 58.4021 13.44 56.8981 13.44C54.7361 13.44 52.8875 14.1293 51.3521 15.508C49.8481 16.8867 48.9865 18.798 48.7671 21.242H65.0291ZM109.403 10.244L101.366 36H96.9476L90.7436 15.555L84.5396 36H80.1216L72.0376 10.244H76.4086L82.3306 31.864L88.7226 10.244H93.0936L99.3446 31.911L105.173 10.244H109.403ZM136.377 3.241C139.949 3.241 143.035 3.91467 145.636 5.262C148.268 6.578 150.273 8.47366 151.652 10.949C153.062 13.4243 153.767 16.3383 153.767 19.691C153.767 23.0437 153.062 25.9577 151.652 28.433C150.273 30.877 148.268 32.757 145.636 34.073C143.035 35.3577 139.949 36 136.377 36H126.178V3.241H136.377ZM136.377 32.475C140.607 32.475 143.834 31.3627 146.059 29.138C148.283 26.882 149.396 23.733 149.396 19.691C149.396 15.6177 148.268 12.4373 146.012 10.15C143.787 7.86267 140.575 6.719 136.377 6.719H130.455V32.475H136.377ZM182.908 22.135C182.908 22.9497 182.861 23.8113 182.767 24.72H162.181C162.338 27.258 163.199 29.2477 164.766 30.689C166.364 32.099 168.291 32.804 170.547 32.804C172.396 32.804 173.931 32.381 175.153 31.535C176.406 30.6577 177.284 29.4983 177.785 28.057H182.391C181.702 30.5323 180.323 32.5533 178.255 34.12C176.187 35.6553 173.618 36.423 170.547 36.423C168.103 36.423 165.91 35.8747 163.967 34.778C162.056 33.6813 160.552 32.1303 159.455 30.125C158.358 28.0883 157.81 25.7383 157.81 23.075C157.81 20.4117 158.343 18.0773 159.408 16.072C160.473 14.0667 161.962 12.5313 163.873 11.466C165.816 10.3693 168.04 9.821 170.547 9.821C172.991 9.821 175.153 10.3537 177.033 11.419C178.913 12.4843 180.354 13.957 181.357 15.837C182.391 17.6857 182.908 19.785 182.908 22.135ZM178.49 21.242C178.49 19.6127 178.13 18.2183 177.409 17.059C176.688 15.8683 175.701 14.9753 174.448 14.38C173.226 13.7533 171.863 13.44 170.359 13.44C168.197 13.44 166.348 14.1293 164.813 15.508C163.309 16.8867 162.447 18.798 162.228 21.242H178.49ZM193.771 13.769V28.95C193.771 30.2033 194.037 31.0963 194.57 31.629C195.102 32.1303 196.027 32.381 197.343 32.381H200.492V36H196.638C194.256 36 192.47 35.4517 191.28 34.355C190.089 33.2583 189.494 31.4567 189.494 28.95V13.769H186.157V10.244H189.494V3.758H193.771V10.244H200.492V13.769H193.771ZM204.076 23.028C204.076 20.396 204.608 18.093 205.674 16.119C206.739 14.1137 208.196 12.5627 210.045 11.466C211.925 10.3693 214.008 9.821 216.296 9.821C218.552 9.821 220.51 10.3067 222.171 11.278C223.831 12.2493 225.069 13.4713 225.884 14.944V10.244H230.208V36H225.884V31.206C225.038 32.71 223.769 33.9633 222.077 34.966C220.416 35.9373 218.473 36.423 216.249 36.423C213.961 36.423 211.893 35.859 210.045 34.731C208.196 33.603 206.739 32.0207 205.674 29.984C204.608 27.9473 204.076 25.6287 204.076 23.028ZM225.884 23.075C225.884 21.1323 225.492 19.4403 224.709 17.999C223.925 16.5577 222.86 15.461 221.513 14.709C220.197 13.9257 218.74 13.534 217.142 13.534C215.544 13.534 214.087 13.91 212.771 14.662C211.455 15.414 210.405 16.5107 209.622 17.952C208.838 19.3933 208.447 21.0853 208.447 23.028C208.447 25.002 208.838 26.7253 209.622 28.198C210.405 29.6393 211.455 30.7517 212.771 31.535C214.087 32.287 215.544 32.663 217.142 32.663C218.74 32.663 220.197 32.287 221.513 31.535C222.86 30.7517 223.925 29.6393 224.709 28.198C225.492 26.7253 225.884 25.0177 225.884 23.075ZM239.644 6.061C238.83 6.061 238.14 5.779 237.576 5.215C237.012 4.651 236.73 3.96166 236.73 3.147C236.73 2.33233 237.012 1.643 237.576 1.079C238.14 0.514998 238.83 0.232998 239.644 0.232998C240.428 0.232998 241.086 0.514998 241.618 1.079C242.182 1.643 242.464 2.33233 242.464 3.147C242.464 3.96166 242.182 4.651 241.618 5.215C241.086 5.779 240.428 6.061 239.644 6.061ZM241.712 10.244V36H237.435V10.244H241.712ZM253.279 1.22V36H249.002V1.22H253.279ZM269.686 36.423C267.712 36.423 265.942 36.094 264.375 35.436C262.809 34.7467 261.571 33.8067 260.662 32.616C259.754 31.394 259.252 29.9997 259.158 28.433H263.576C263.702 29.7177 264.297 30.7673 265.362 31.582C266.459 32.3967 267.885 32.804 269.639 32.804C271.269 32.804 272.553 32.4437 273.493 31.723C274.433 31.0023 274.903 30.0937 274.903 28.997C274.903 27.869 274.402 27.0387 273.399 26.506C272.397 25.942 270.846 25.3937 268.746 24.861C266.835 24.3597 265.268 23.8583 264.046 23.357C262.856 22.8243 261.822 22.0567 260.944 21.054C260.098 20.02 259.675 18.6727 259.675 17.012C259.675 15.696 260.067 14.4897 260.85 13.393C261.634 12.2963 262.746 11.4347 264.187 10.808C265.629 10.15 267.274 9.821 269.122 9.821C271.974 9.821 274.277 10.5417 276.031 11.983C277.786 13.4243 278.726 15.3983 278.851 17.905H274.574C274.48 16.5577 273.932 15.4767 272.929 14.662C271.958 13.8473 270.642 13.44 268.981 13.44C267.446 13.44 266.224 13.769 265.315 14.427C264.407 15.085 263.952 15.9467 263.952 17.012C263.952 17.858 264.219 18.563 264.751 19.127C265.315 19.6597 266.005 20.0983 266.819 20.443C267.665 20.7563 268.825 21.1167 270.297 21.524C272.146 22.0253 273.65 22.5267 274.809 23.028C275.969 23.498 276.956 24.2187 277.77 25.19C278.616 26.1613 279.055 27.4303 279.086 28.997C279.086 30.407 278.695 31.676 277.911 32.804C277.128 33.932 276.016 34.825 274.574 35.483C273.164 36.1097 271.535 36.423 269.686 36.423ZM298.453 8.035H303.858L315.232 18.798L303.858 29.608H298.453L309.827 18.798L298.453 8.035ZM323.789 8.035H329.194L340.568 18.798L329.194 29.608H323.789L335.163 18.798L323.789 8.035Z" fill="#FF7F47"/>
</svg>
