<svg width="40" height="41" viewBox="0 0 40 41" fill="none" xmlns="http://www.w3.org/2000/svg">
<path d="M20.1666 31.4167L19.9999 31.5833L19.8166 31.4167C11.8999 24.2333 6.66659 19.4833 6.66659 14.6667C6.66659 11.3333 9.16658 8.83333 12.4999 8.83333C15.0666 8.83333 17.5666 10.5 18.4499 12.7667H21.5499C22.4333 10.5 24.9333 8.83333 27.4999 8.83333C30.8333 8.83333 33.3333 11.3333 33.3333 14.6667C33.3333 19.4833 28.0999 24.2333 20.1666 31.4167ZM27.4999 5.5C24.5999 5.5 21.8166 6.85 19.9999 8.96667C18.1833 6.85 15.3999 5.5 12.4999 5.5C7.36659 5.5 3.33325 9.51667 3.33325 14.6667C3.33325 20.95 8.99992 26.1 17.5833 33.8833L19.9999 36.0833L22.4166 33.8833C30.9999 26.1 36.6666 20.95 36.6666 14.6667C36.6666 9.51667 32.6333 5.5 27.4999 5.5Z" fill="#B1B1B1"/>
</svg>
